<svg xmlns="http://www.w3.org/2000/svg" width="55.6" height="35" viewBox="0 0 55.6 35"><rect class="svg__rect" x="0" y="0" width="55.6" height="35" fill="#EA4560"/><rect class="svg__rect" x="55.6" y="0" width="0" height="35" fill="#389AD5"/><path class="svg__text" d="M15.00 22L13.46 22L16.68 13.47L18.01 13.47L21.24 22L19.69 22L18.99 20.01L15.69 20.01L15.00 22ZM17.34 15.28L16.10 18.82L18.58 18.82L17.34 15.28ZM26.67 22L25.19 22L25.19 13.47L26.67 13.47L30.49 19.54L30.49 13.47L31.96 13.47L31.96 22L30.48 22L26.67 15.95L26.67 22ZM39.15 22L36.70 22L36.70 13.47L39.22 13.47Q40.35 13.47 41.23 13.97Q42.10 14.48 42.58 15.40Q43.06 16.33 43.06 17.52L43.06 17.52L43.06 17.95Q43.06 19.16 42.58 20.08Q42.10 21.00 41.20 21.50Q40.31 22 39.15 22L39.15 22ZM38.18 14.66L38.18 20.82L39.15 20.82Q40.31 20.82 40.94 20.09Q41.56 19.36 41.57 17.99L41.57 17.99L41.57 17.52Q41.57 16.13 40.97 15.40Q40.37 14.66 39.22 14.66L39.22 14.66L38.18 14.66Z" fill="#000000"/><path class="svg__text" d="" fill="#FFFFFF" x="68.6"/></svg>