<svg xmlns="http://www.w3.org/2000/svg" width="128.25" height="35" viewBox="0 0 128.25 35"><rect class="svg__rect" x="0" y="0" width="128.25" height="35" fill="#31C4F3"/><rect class="svg__rect" x="128.25" y="0" width="0" height="35" fill="#389AD5"/><path class="svg__text" d="M13.95 18.00L13.95 18.00L13.95 17.52Q13.95 16.28 14.39 15.32Q14.83 14.37 15.64 13.86Q16.44 13.35 17.49 13.35Q18.53 13.35 19.34 13.85Q20.14 14.35 20.58 15.29Q21.02 16.23 21.03 17.48L21.03 17.48L21.03 17.96Q21.03 19.21 20.59 20.16Q20.16 21.10 19.35 21.61Q18.55 22.12 17.50 22.12L17.50 22.12Q16.46 22.12 15.65 21.61Q14.84 21.10 14.40 20.17Q13.95 19.23 13.95 18.00ZM15.43 17.46L15.43 17.96Q15.43 19.36 15.98 20.13Q16.53 20.90 17.50 20.90L17.50 20.90Q18.48 20.90 19.01 20.15Q19.54 19.40 19.54 17.96L19.54 17.96L19.54 17.51Q19.54 16.09 19.01 15.34Q18.47 14.58 17.49 14.58L17.49 14.58Q16.53 14.58 15.98 15.33Q15.44 16.09 15.43 17.46L15.43 17.46ZM28.60 22L25.49 22L25.49 13.47L28.41 13.47Q29.86 13.47 30.62 14.05Q31.37 14.63 31.37 15.78L31.37 15.78Q31.37 16.36 31.06 16.83Q30.74 17.30 30.13 17.56L30.13 17.56Q30.82 17.75 31.20 18.26Q31.58 18.78 31.58 19.51L31.58 19.51Q31.58 20.71 30.81 21.36Q30.04 22 28.60 22L28.60 22ZM26.97 18.15L26.97 20.82L28.62 20.82Q29.32 20.82 29.71 20.47Q30.10 20.13 30.10 19.51L30.10 19.51Q30.10 18.18 28.74 18.15L28.74 18.15L26.97 18.15ZM26.97 14.66L26.97 17.06L28.43 17.06Q29.12 17.06 29.51 16.75Q29.90 16.43 29.90 15.86L29.90 15.86Q29.90 15.23 29.54 14.95Q29.18 14.66 28.41 14.66L28.41 14.66L26.97 14.66ZM35.45 19.57L35.45 19.57L36.92 19.57Q36.92 20.25 37.26 20.59Q37.60 20.93 38.23 20.93L38.23 20.93Q38.83 20.93 39.19 20.54Q39.54 20.14 39.54 19.45L39.54 19.45L39.54 13.47L41.02 13.47L41.02 19.45Q41.02 20.68 40.25 21.40Q39.49 22.12 38.23 22.12L38.23 22.12Q36.90 22.12 36.17 21.44Q35.45 20.77 35.45 19.57ZM51.28 22L45.70 22L45.70 13.47L51.24 13.47L51.24 14.66L47.18 14.66L47.18 17.02L50.69 17.02L50.69 18.19L47.18 18.19L47.18 20.82L51.28 20.82L51.28 22ZM55.20 18.19L55.20 18.19L55.20 17.39Q55.20 16.19 55.63 15.27Q56.06 14.35 56.86 13.85Q57.66 13.35 58.71 13.35L58.71 13.35Q60.12 13.35 60.98 14.12Q61.84 14.89 61.98 16.29L61.98 16.29L60.51 16.29Q60.40 15.37 59.97 14.96Q59.54 14.55 58.71 14.55L58.71 14.55Q57.74 14.55 57.22 15.26Q56.70 15.96 56.69 17.33L56.69 17.33L56.69 18.09Q56.69 19.47 57.19 20.20Q57.68 20.92 58.64 20.92L58.64 20.92Q59.51 20.92 59.95 20.53Q60.39 20.14 60.51 19.22L60.51 19.22L61.98 19.22Q61.85 20.59 60.98 21.35Q60.10 22.12 58.64 22.12L58.64 22.12Q57.62 22.12 56.84 21.63Q56.06 21.15 55.64 20.26Q55.22 19.37 55.20 18.19ZM67.98 14.66L65.34 14.66L65.34 13.47L72.11 13.47L72.11 14.66L69.45 14.66L69.45 22L67.98 22L67.98 14.66ZM77.43 22L75.95 22L75.95 13.47L77.43 13.47L77.43 22ZM84.54 22L81.48 13.47L83.10 13.47L85.24 20.14L87.41 13.47L89.04 13.47L85.97 22L84.54 22ZM98.57 22L92.99 22L92.99 13.47L98.53 13.47L98.53 14.66L94.47 14.66L94.47 17.02L97.98 17.02L97.98 18.19L94.47 18.19L94.47 20.82L98.57 20.82L98.57 22ZM105.39 18.95L102.31 18.95L102.31 17.80L105.39 17.80L105.39 18.95ZM109.42 18.19L109.42 18.19L109.42 17.39Q109.42 16.19 109.85 15.27Q110.28 14.35 111.08 13.85Q111.88 13.35 112.92 13.35L112.92 13.35Q114.34 13.35 115.20 14.12Q116.06 14.89 116.20 16.29L116.20 16.29L114.72 16.29Q114.62 15.37 114.19 14.96Q113.76 14.55 112.92 14.55L112.92 14.55Q111.96 14.55 111.44 15.26Q110.92 15.96 110.91 17.33L110.91 17.33L110.91 18.09Q110.91 19.47 111.40 20.20Q111.90 20.92 112.85 20.92L112.85 20.92Q113.73 20.92 114.17 20.53Q114.61 20.14 114.72 19.22L114.72 19.22L116.20 19.22Q116.07 20.59 115.19 21.35Q114.31 22.12 112.85 22.12L112.85 22.12Q111.83 22.12 111.06 21.63Q110.28 21.15 109.86 20.26Q109.44 19.37 109.42 18.19Z" fill="#000000"/><path class="svg__text" d="" fill="#FFFFFF" x="141.25"/></svg>